<svg width="156" height="21" viewBox="0 0 156 21" fill="none" xmlns="http://www.w3.org/2000/svg">
<path d="M152.079 0.5H138.921C137.032 0.5 135.5 2.03166 135.5 3.92105V17.0789C135.5 18.9683 137.032 20.5 138.921 20.5H152.079C153.968 20.5 155.5 18.9683 155.5 17.0789V3.92105C155.5 2.03166 153.968 0.5 152.079 0.5Z" fill="#EDEDED" fill-opacity="0.08"/>
<path d="M152.079 0.5H138.921C137.032 0.5 135.5 2.03166 135.5 3.92105V17.0789C135.5 18.9683 137.032 20.5 138.921 20.5H152.079C153.968 20.5 155.5 18.9683 155.5 17.0789V3.92105C155.5 2.03166 153.968 0.5 152.079 0.5Z" fill="#EDEDED" fill-opacity="0.08"/>
<path d="M152.079 0.5H138.921C137.032 0.5 135.5 2.03166 135.5 3.92105V17.0789C135.5 18.9683 137.032 20.5 138.921 20.5H152.079C153.968 20.5 155.5 18.9683 155.5 17.0789V3.92105C155.5 2.03166 153.968 0.5 152.079 0.5Z" stroke="url(#paint0_linear_1044_170)" stroke-width="0.75"/>
<path d="M139.235 9.12089C139.29 8.58286 139.454 8.10334 139.726 7.68229C140 7.26124 140.362 6.93374 140.814 6.69983C141.274 6.45811 141.796 6.33725 142.382 6.33725C142.928 6.33725 143.419 6.44642 143.855 6.66474C144.292 6.87527 144.631 7.16766 144.873 7.54194C145.123 7.9162 145.246 8.33725 145.246 8.8051C145.246 9.20275 145.154 9.56143 144.965 9.88111C144.779 10.2008 144.529 10.4893 144.217 10.7466C143.913 10.9961 143.535 11.2573 143.083 11.5302C142.825 11.6706 142.544 11.8499 142.241 12.0683C141.937 12.2788 141.656 12.5166 141.399 12.7818C141.149 13.039 141.017 13.2807 141.001 13.5068H145.294V14.8285H139.154C139.154 14.0566 139.29 13.4016 139.562 12.8636C139.836 12.3256 140.167 11.8928 140.557 11.5653C140.947 11.23 141.511 10.8402 142.253 10.3957C142.728 10.1072 143.083 9.83823 143.316 9.58872C143.559 9.33141 143.68 9.0663 143.68 8.79339C143.68 8.57507 143.625 8.38014 143.516 8.2086C143.406 8.03705 143.25 7.90451 143.048 7.81093C142.853 7.70957 142.631 7.65889 142.382 7.65889C141.961 7.65889 141.614 7.79534 141.34 8.06825C141.068 8.33336 140.888 8.71543 140.803 9.21444L139.235 9.12089ZM151.074 11.9279H151.986V13.2612H151.074V14.8285H149.541V13.2612H145.307V11.9396L149.284 6.52439H151.074V11.9279ZM149.541 11.9279V8.53608L147.026 11.9279H149.541Z" fill="url(#paint1_linear_1044_170)"/>
<path d="M5.60782 17.5V5.46H1.30782V3.5H12.0678V5.46H7.76782V17.5H5.60782ZM13.9256 17.5V3.5H19.8056C20.6723 3.5 21.4323 3.65333 22.0856 3.96C22.7523 4.25333 23.2656 4.68 23.6256 5.24C23.999 5.8 24.1856 6.46667 24.1856 7.24V7.46C24.1856 8.34 23.9723 9.04667 23.5456 9.58C23.1323 10.1 22.6256 10.4667 22.0256 10.68V11C22.5323 11.0267 22.939 11.2 23.2456 11.52C23.5523 11.8267 23.7056 12.2733 23.7056 12.86V17.5H21.5256V13.16C21.5256 12.8 21.4323 12.5133 21.2456 12.3C21.059 12.0867 20.759 11.98 20.3456 11.98H16.0856V17.5H13.9256ZM16.0856 10.02H19.5656C20.339 10.02 20.939 9.82667 21.3656 9.44C21.7923 9.04 22.0056 8.5 22.0056 7.82V7.66C22.0056 6.98 21.7923 6.44667 21.3656 6.06C20.9523 5.66 20.3523 5.46 19.5656 5.46H16.0856V10.02ZM25.4223 17.5L29.4223 3.5H33.2223L37.2023 17.5H34.9823L34.0623 14.2H28.5823L27.6623 17.5H25.4223ZM29.1223 12.2H33.5223L31.4823 4.84H31.1623L29.1223 12.2ZM38.9991 17.5V3.5H43.1591L46.9591 16.06H47.2791V3.5H49.4191V17.5H45.2591L41.4591 4.92H41.1391V17.5H38.9991ZM56.9989 17.78C55.9456 17.78 55.0122 17.5933 54.1989 17.22C53.3856 16.8467 52.7456 16.3 52.2789 15.58C51.8256 14.8467 51.5989 13.96 51.5989 12.92V12.42H53.7389V12.92C53.7389 13.9067 54.0322 14.6467 54.6189 15.14C55.2189 15.6333 56.0122 15.88 56.9989 15.88C57.9989 15.88 58.7522 15.6733 59.2589 15.26C59.7656 14.8333 60.0189 14.2867 60.0189 13.62C60.0189 13.18 59.8989 12.82 59.6589 12.54C59.4189 12.26 59.0789 12.04 58.6389 11.88C58.1989 11.7067 57.6722 11.5467 57.0589 11.4L56.3189 11.22C55.4256 11.0067 54.6456 10.7467 53.9789 10.44C53.3256 10.12 52.8189 9.7 52.4589 9.18C52.0989 8.66 51.9189 7.99333 51.9189 7.18C51.9189 6.35333 52.1189 5.64667 52.5189 5.06C52.9322 4.47333 53.4989 4.02 54.2189 3.7C54.9389 3.38 55.7856 3.22 56.7589 3.22C57.7322 3.22 58.5989 3.38667 59.3589 3.72C60.1322 4.05333 60.7389 4.54667 61.1789 5.2C61.6189 5.85333 61.8389 6.67333 61.8389 7.66V8.38H59.6989V7.66C59.6989 7.06 59.5722 6.57333 59.3189 6.2C59.0789 5.82667 58.7389 5.55333 58.2989 5.38C57.8589 5.20667 57.3456 5.12 56.7589 5.12C55.9056 5.12 55.2389 5.3 54.7589 5.66C54.2922 6.00667 54.0589 6.49333 54.0589 7.12C54.0589 7.54667 54.1589 7.9 54.3589 8.18C54.5722 8.44667 54.8789 8.66667 55.2789 8.84C55.6789 9.01333 56.1789 9.16667 56.7789 9.3L57.5189 9.48C58.4256 9.68 59.2256 9.94 59.9189 10.26C60.6122 10.5667 61.1589 10.9867 61.5589 11.52C61.9589 12.0533 62.1589 12.74 62.1589 13.58C62.1589 14.42 61.9456 15.1533 61.5189 15.78C61.1056 16.4067 60.5122 16.9 59.7389 17.26C58.9656 17.6067 58.0522 17.78 56.9989 17.78ZM64.3264 17.5V3.5H72.9664V5.46H66.4864V9.5H72.4464V11.46H66.4864V17.5H64.3264ZM74.9686 17.5V3.5H77.1286V17.5H74.9686ZM79.9467 17.5V3.5H84.1067L87.9067 16.06H88.2267V3.5H90.3667V17.5H86.2067L82.4067 4.92H82.0867V17.5H79.9467ZM93.1866 17.5V3.5H95.3466V17.5H93.1866ZM101.505 17.5V5.46H97.2047V3.5H107.965V5.46H103.665V17.5H101.505ZM113.163 17.5V5.46H108.863V3.5H119.623V5.46H115.323V17.5H113.163ZM121.48 17.5V3.5H130.3V5.46H123.64V9.48H129.74V11.44H123.64V15.54H130.4V17.5H121.48Z" fill="white"/>
<defs>
<linearGradient id="paint0_linear_1044_170" x1="145.499" y1="-0.0263158" x2="145.499" y2="21.0263" gradientUnits="userSpaceOnUse">
<stop stop-color="#EDEDED" stop-opacity="0.8"/>
<stop offset="1" stop-color="#EDEDED"/>
</linearGradient>
<linearGradient id="paint1_linear_1044_170" x1="145.499" y1="6.40743" x2="145.499" y2="14.5945" gradientUnits="userSpaceOnUse">
<stop stop-color="#EDEDED" stop-opacity="0.8"/>
<stop offset="1" stop-color="#EDEDED"/>
</linearGradient>
</defs>
</svg>
