<svg width="62" height="41" viewBox="0 0 62 41" fill="none" xmlns="http://www.w3.org/2000/svg">
<path d="M0.918457 0.82C0.918457 0.367126 1.28801 0 1.74388 0H23.205C23.6609 0 24.0304 0.367127 24.0304 0.82V9.02C24.0304 9.47287 23.6609 9.84 23.205 9.84H1.74388C1.28801 9.84 0.918457 9.47287 0.918457 9.02V0.82Z" fill="white" fill-opacity="0.65"/>
<path d="M26.5067 0.819999C26.5067 0.367126 26.8763 0 27.3321 0H61.1747C61.6305 0 62.0001 0.367127 62.0001 0.82V9.02C62.0001 9.47287 61.6305 9.84 61.1747 9.84H37.2373C36.7814 9.84 36.4118 10.2071 36.4118 10.66V40.18C36.4118 40.6329 36.0423 41 35.5864 41H27.3321C26.8763 41 26.5067 40.6329 26.5067 40.18V0.819999Z" fill="white" fill-opacity="0.65"/>
</svg>
