<svg width="97" height="21" viewBox="0 0 97 21" fill="none" xmlns="http://www.w3.org/2000/svg">
<rect x="1" y="1" width="95" height="19" rx="9.5" stroke="white"/>
<path d="M10.552 14.5V6.8H13.896C14.38 6.8 14.8016 6.88433 15.161 7.053C15.5203 7.22167 15.799 7.46 15.997 7.768C16.195 8.076 16.294 8.439 16.294 8.857V8.989C16.294 9.451 16.184 9.825 15.964 10.111C15.744 10.397 15.4726 10.606 15.15 10.738V10.936C15.4433 10.9507 15.6706 11.0533 15.832 11.244C15.9933 11.4273 16.074 11.673 16.074 11.981V14.5H14.622V12.19C14.622 12.014 14.5743 11.871 14.479 11.761C14.391 11.651 14.2406 11.596 14.028 11.596H12.004V14.5H10.552ZM12.004 10.276H13.742C14.0866 10.276 14.3543 10.1843 14.545 10.001C14.743 9.81033 14.842 9.561 14.842 9.253V9.143C14.842 8.835 14.7466 8.58933 14.556 8.406C14.3653 8.21533 14.094 8.12 13.742 8.12H12.004V10.276ZM17.8522 14.5V6.8H22.8022V8.12H19.3042V9.957H22.4942V11.277H19.3042V13.18H22.8682V14.5H17.8522ZM26.955 14.654C26.427 14.654 25.9467 14.5367 25.514 14.302C25.0887 14.06 24.7477 13.7117 24.491 13.257C24.2417 12.795 24.117 12.234 24.117 11.574V9.726C24.117 8.736 24.3957 7.977 24.953 7.449C25.5103 6.91367 26.2657 6.646 27.219 6.646C28.165 6.646 28.8947 6.899 29.408 7.405C29.9287 7.90367 30.189 8.582 30.189 9.44V9.484H28.759V9.396C28.759 9.12467 28.7003 8.879 28.583 8.659C28.473 8.439 28.3043 8.26667 28.077 8.142C27.8497 8.01 27.5637 7.944 27.219 7.944C26.7057 7.944 26.3023 8.10167 26.009 8.417C25.7157 8.73233 25.569 9.16133 25.569 9.704V11.596C25.569 12.1313 25.7157 12.564 26.009 12.894C26.3023 13.2167 26.713 13.378 27.241 13.378C27.769 13.378 28.154 13.2387 28.396 12.96C28.638 12.6813 28.759 12.3293 28.759 11.904V11.794H26.933V10.562H30.189V14.5H28.847V13.763H28.649C28.5977 13.8877 28.5133 14.0197 28.396 14.159C28.286 14.2983 28.1173 14.4157 27.89 14.511C27.6627 14.6063 27.351 14.654 26.955 14.654ZM31.9262 14.5V6.8H33.3782V14.5H31.9262ZM37.8496 14.654C37.2556 14.654 36.7313 14.5477 36.2766 14.335C35.8219 14.1223 35.4663 13.818 35.2096 13.422C34.9529 13.026 34.8246 12.5493 34.8246 11.992V11.684H36.2546V11.992C36.2546 12.454 36.3976 12.8023 36.6836 13.037C36.9696 13.2643 37.3583 13.378 37.8496 13.378C38.3483 13.378 38.7186 13.279 38.9606 13.081C39.2099 12.883 39.3346 12.63 39.3346 12.322C39.3346 12.1093 39.2723 11.937 39.1476 11.805C39.0303 11.673 38.8543 11.5667 38.6196 11.486C38.3923 11.398 38.1136 11.3173 37.7836 11.244L37.5306 11.189C37.0026 11.0717 36.5479 10.925 36.1666 10.749C35.7926 10.5657 35.5029 10.3273 35.2976 10.034C35.0996 9.74067 35.0006 9.35933 35.0006 8.89C35.0006 8.42067 35.1106 8.021 35.3306 7.691C35.5579 7.35367 35.8733 7.097 36.2766 6.921C36.6873 6.73767 37.1676 6.646 37.7176 6.646C38.2676 6.646 38.7553 6.74133 39.1806 6.932C39.6133 7.11533 39.9506 7.394 40.1926 7.768C40.4419 8.13467 40.5666 8.59667 40.5666 9.154V9.484H39.1366V9.154C39.1366 8.86067 39.0779 8.626 38.9606 8.45C38.8506 8.26667 38.6893 8.13467 38.4766 8.054C38.2639 7.966 38.0109 7.922 37.7176 7.922C37.2776 7.922 36.9513 8.00633 36.7386 8.175C36.5333 8.33633 36.4306 8.56 36.4306 8.846C36.4306 9.03667 36.4783 9.198 36.5736 9.33C36.6763 9.462 36.8266 9.572 37.0246 9.66C37.2226 9.748 37.4756 9.825 37.7836 9.891L38.0366 9.946C38.5866 10.0633 39.0633 10.2137 39.4666 10.397C39.8773 10.5803 40.1963 10.8223 40.4236 11.123C40.6509 11.4237 40.7646 11.8087 40.7646 12.278C40.7646 12.7473 40.6436 13.1617 40.4016 13.521C40.1669 13.873 39.8296 14.1517 39.3896 14.357C38.9569 14.555 38.4436 14.654 37.8496 14.654ZM43.7324 14.5V8.12H41.4884V6.8H47.4284V8.12H45.1844V14.5H43.7324ZM48.7672 14.5V6.8H52.1112C52.5952 6.8 53.0169 6.88433 53.3762 7.053C53.7355 7.22167 54.0142 7.46 54.2122 7.768C54.4102 8.076 54.5092 8.439 54.5092 8.857V8.989C54.5092 9.451 54.3992 9.825 54.1792 10.111C53.9592 10.397 53.6879 10.606 53.3652 10.738V10.936C53.6585 10.9507 53.8859 11.0533 54.0472 11.244C54.2085 11.4273 54.2892 11.673 54.2892 11.981V14.5H52.8372V12.19C52.8372 12.014 52.7895 11.871 52.6942 11.761C52.6062 11.651 52.4559 11.596 52.2432 11.596H50.2192V14.5H48.7672ZM50.2192 10.276H51.9572C52.3019 10.276 52.5695 10.1843 52.7602 10.001C52.9582 9.81033 53.0572 9.561 53.0572 9.253V9.143C53.0572 8.835 52.9619 8.58933 52.7712 8.406C52.5805 8.21533 52.3092 8.12 51.9572 8.12H50.2192V10.276ZM55.5394 14.5L57.5634 6.8H60.0934L62.1174 14.5H60.6214L60.2034 12.806H57.4534L57.0354 14.5H55.5394ZM57.7944 11.464H59.8624L58.9274 7.713H58.7294L57.7944 11.464ZM64.4621 14.5V8.12H62.2181V6.8H68.1581V8.12H65.9141V14.5H64.4621ZM69.4969 14.5V6.8H70.9489V14.5H69.4969ZM75.7393 14.654C74.7713 14.654 74.0013 14.39 73.4293 13.862C72.8573 13.3267 72.5713 12.564 72.5713 11.574V9.726C72.5713 8.736 72.8573 7.977 73.4293 7.449C74.0013 6.91367 74.7713 6.646 75.7393 6.646C76.7073 6.646 77.4773 6.91367 78.0493 7.449C78.6213 7.977 78.9073 8.736 78.9073 9.726V11.574C78.9073 12.564 78.6213 13.3267 78.0493 13.862C77.4773 14.39 76.7073 14.654 75.7393 14.654ZM75.7393 13.356C76.282 13.356 76.7036 13.1983 77.0043 12.883C77.305 12.5677 77.4553 12.146 77.4553 11.618V9.682C77.4553 9.154 77.305 8.73233 77.0043 8.417C76.7036 8.10167 76.282 7.944 75.7393 7.944C75.204 7.944 74.7823 8.10167 74.4743 8.417C74.1736 8.73233 74.0233 9.154 74.0233 9.682V11.618C74.0233 12.146 74.1736 12.5677 74.4743 12.883C74.7823 13.1983 75.204 13.356 75.7393 13.356ZM80.5309 14.5V6.8H83.2919L84.8209 13.51H85.0189V6.8H86.4489V14.5H83.6879L82.1589 7.79H81.9609V14.5H80.5309Z" fill="white"/>
</svg>
