<svg xmlns="http://www.w3.org/2000/svg" width="66" height="66" viewBox="0 0 66 66" fill="none">
  <path d="M54.0526 1H11.9474C5.9013 1 1 5.9013 1 11.9474V54.0526C1 60.0987 5.9013 65 11.9474 65H54.0526C60.0987 65 65 60.0987 65 54.0526V11.9474C65 5.9013 60.0987 1 54.0526 1Z" fill="#EDEDED" fill-opacity="0.08"/>
  <path d="M54.0526 1H11.9474C5.9013 1 1 5.9013 1 11.9474V54.0526C1 60.0987 5.9013 65 11.9474 65H54.0526C60.0987 65 65 60.0987 65 54.0526V11.9474C65 5.9013 60.0987 1 54.0526 1Z" fill="#EDEDED" fill-opacity="0.08"/>
  <path d="M54.0526 1H11.9474C5.9013 1 1 5.9013 1 11.9474V54.0526C1 60.0987 5.9013 65 11.9474 65H54.0526C60.0987 65 65 60.0987 65 54.0526V11.9474C65 5.9013 60.0987 1 54.0526 1Z" stroke="url(#paint0_linear_727_159)" stroke-width="0.75"/>
  <path d="M10.2918 27.8347C10.488 25.9339 11.0767 24.2397 12.0527 22.7521C13.0338 21.2645 14.3318 20.1074 15.9519 19.281C17.6021 18.427 19.4737 18 21.5717 18C23.5288 18 25.2897 18.3857 26.8544 19.1571C28.4191 19.9009 29.6367 20.9339 30.502 22.2562C31.3976 23.5785 31.8403 25.0661 31.8403 26.719C31.8403 28.1239 31.5083 29.3912 30.8341 30.5206C30.1649 31.6501 29.2694 32.6694 28.1525 33.5785C27.0607 34.46 25.7073 35.3829 24.0873 36.347C23.1616 36.8429 22.1553 37.4765 21.0686 38.2479C19.9768 38.9917 18.9706 39.8319 18.0499 40.7688C17.1543 41.6777 16.6814 42.5316 16.621 43.3304H32.0114V48H10C10 45.2727 10.488 42.9585 11.4641 41.0579C12.4452 39.157 13.6325 37.6281 15.0312 36.471C16.4298 35.2865 18.4524 33.9091 21.1088 32.3388C22.8144 31.3196 24.0873 30.3691 24.9225 29.4876C25.7929 28.5785 26.2255 27.6419 26.2255 26.6777C26.2255 25.9063 26.0293 25.2176 25.6369 24.6116C25.2445 24.0055 24.686 23.5372 23.9615 23.2066C23.2622 22.8485 22.4673 22.6694 21.5717 22.6694C20.0624 22.6694 18.8196 23.1515 17.8386 24.1157C16.8625 25.0524 16.2185 26.4022 15.9116 28.1653L10.2918 27.8347ZM52.7297 37.752H56V42.4627H52.7297V48H47.2357V42.4627H32.0567V37.7933L46.315 18.6612H52.7297V37.752ZM47.2357 37.752V25.7686L38.2199 37.752H47.2357Z" fill="url(#paint1_linear_727_159)"/>
  <defs>
    <linearGradient id="paint0_linear_727_159" x1="32.9955" y1="-0.684211" x2="32.9955" y2="66.6842" gradientUnits="userSpaceOnUse">
      <stop stop-color="#EDEDED" stop-opacity="0.8"/>
      <stop offset="1" stop-color="#EDEDED"/>
    </linearGradient>
    <linearGradient id="paint1_linear_727_159" x1="32.7459" y1="18.2479" x2="32.7459" y2="47.1734" gradientUnits="userSpaceOnUse">
      <stop stop-color="#EDEDED" stop-opacity="0.8"/>
      <stop offset="1" stop-color="#EDEDED"/>
    </linearGradient>
  </defs>
</svg>
