<svg width="48" height="22" viewBox="0 0 48 22" fill="none" xmlns="http://www.w3.org/2000/svg">
<path d="M43.5789 1H30.4211C28.5317 1 27 2.53166 27 4.42105V17.5789C27 19.4683 28.5317 21 30.4211 21H43.5789C45.4683 21 47 19.4683 47 17.5789V4.42105C47 2.53166 45.4683 1 43.5789 1Z" fill="#EDEDED" fill-opacity="0.08"/>
<path d="M43.5789 1H30.4211C28.5317 1 27 2.53166 27 4.42105V17.5789C27 19.4683 28.5317 21 30.4211 21H43.5789C45.4683 21 47 19.4683 47 17.5789V4.42105C47 2.53166 45.4683 1 43.5789 1Z" fill="#EDEDED" fill-opacity="0.08"/>
<path d="M43.5789 1H30.4211C28.5317 1 27 2.53166 27 4.42105V17.5789C27 19.4683 28.5317 21 30.4211 21H43.5789C45.4683 21 47 19.4683 47 17.5789V4.42105C47 2.53166 45.4683 1 43.5789 1Z" stroke="url(#paint0_linear_13_1109)" stroke-width="0.75"/>
<path d="M30.7347 9.62089C30.7895 9.08286 30.9537 8.60334 31.2259 8.18229C31.4996 7.76124 31.8617 7.43374 32.3137 7.19983C32.774 6.95811 33.2961 6.83725 33.8814 6.83725C34.4274 6.83725 34.9186 6.94642 35.3551 7.16474C35.7916 7.37527 36.1312 7.66766 36.3726 8.04194C36.6224 8.4162 36.746 8.83725 36.746 9.3051C36.746 9.70275 36.6533 10.0614 36.4652 10.3811C36.2786 10.7008 36.0288 10.9893 35.7172 11.2466C35.4126 11.4961 35.0351 11.7573 34.5831 12.0302C34.3249 12.1706 34.0442 12.3499 33.741 12.5683C33.4365 12.7788 33.1558 13.0166 32.8989 13.2818C32.6491 13.539 32.5172 13.7807 32.5003 14.0068H36.7937V15.3285H30.6533C30.6533 14.5566 30.7895 13.9016 31.0617 13.3636C31.3354 12.8256 31.6667 12.3928 32.0568 12.0653C32.447 11.73 33.0112 11.3402 33.7523 10.8957C34.2281 10.6072 34.5831 10.3382 34.8161 10.0887C35.0589 9.83141 35.1796 9.5663 35.1796 9.29339C35.1796 9.07507 35.1249 8.88014 35.0154 8.7086C34.906 8.53705 34.7502 8.40451 34.5481 8.31093C34.353 8.20957 34.1312 8.15889 33.8814 8.15889C33.4603 8.15889 33.1137 8.29534 32.84 8.56825C32.5677 8.83336 32.3881 9.21543 32.3024 9.71444L30.7347 9.62089ZM42.5733 12.4279H43.4856V13.7612H42.5733V15.3285H41.0407V13.7612H36.8063V12.4396L40.7838 7.02439H42.5733V12.4279ZM41.0407 12.4279V9.03608L38.5256 12.4279H41.0407Z" fill="url(#paint1_linear_13_1109)"/>
<path d="M0 4.28C0 4.12536 0.127054 4 0.283784 4H7.66216C7.81889 4 7.94595 4.12536 7.94595 4.28V7.08C7.94595 7.23464 7.81889 7.36 7.66216 7.36H0.283784C0.127054 7.36 0 7.23464 0 7.08V4.28ZM8.7973 4.28C8.7973 4.12536 8.92435 4 9.08108 4H20.7162C20.8729 4 21 4.12536 21 4.28V7.08C21 7.23464 20.8729 7.36 20.7162 7.36H12.4865C12.3298 7.36 12.2027 7.48536 12.2027 7.64V17.72C12.2027 17.8746 12.0756 18 11.9189 18H9.08108C8.92435 18 8.7973 17.8746 8.7973 17.72V4.28Z" fill="white"/>
<path d="M0 4.28C0 4.12536 0.127054 4 0.283784 4H7.66216C7.81889 4 7.94595 4.12536 7.94595 4.28V7.08C7.94595 7.23464 7.81889 7.36 7.66216 7.36H0.283784C0.127054 7.36 0 7.23464 0 7.08V4.28ZM8.7973 4.28C8.7973 4.12536 8.92435 4 9.08108 4H20.7162C20.8729 4 21 4.12536 21 4.28V7.08C21 7.23464 20.8729 7.36 20.7162 7.36H12.4865C12.3298 7.36 12.2027 7.48536 12.2027 7.64V17.72C12.2027 17.8746 12.0756 18 11.9189 18H9.08108C8.92435 18 8.7973 17.8746 8.7973 17.72V4.28Z" stroke="white"/>
<defs>
<linearGradient id="paint0_linear_13_1109" x1="36.9986" y1="0.473684" x2="36.9986" y2="21.5263" gradientUnits="userSpaceOnUse">
<stop stop-color="#EDEDED" stop-opacity="0.8"/>
<stop offset="1" stop-color="#EDEDED"/>
</linearGradient>
<linearGradient id="paint1_linear_13_1109" x1="36.9986" y1="6.90743" x2="36.9986" y2="15.0945" gradientUnits="userSpaceOnUse">
<stop stop-color="#EDEDED" stop-opacity="0.8"/>
<stop offset="1" stop-color="#EDEDED"/>
</linearGradient>
</defs>
</svg>
