<svg width="94" height="22" viewBox="0 0 94 22" fill="none" xmlns="http://www.w3.org/2000/svg">
<rect width="94" height="22" rx="11" fill="white"/>
<path d="M10.12 6.06H13.97C14.7353 6.06 15.3933 6.186 15.944 6.438C16.504 6.69 16.9333 7.054 17.232 7.53C17.5307 8.006 17.68 8.57067 17.68 9.224C17.68 9.88667 17.5307 10.4607 17.232 10.946C16.9333 11.422 16.504 11.786 15.944 12.038C15.3933 12.29 14.7353 12.416 13.97 12.416H11.94V16H10.12V6.06ZM13.886 10.834C14.502 10.834 14.9733 10.6987 15.3 10.428C15.636 10.1573 15.804 9.756 15.804 9.224C15.804 8.71067 15.636 8.31867 15.3 8.048C14.9733 7.77733 14.502 7.642 13.886 7.642H11.94V10.834H13.886ZM20.0955 6.06H22.3215L25.9055 16H24.0015L23.1755 13.648H19.2415L18.4155 16H16.5115L20.0955 6.06ZM22.6435 12.094L21.2155 7.894L19.7735 12.094H22.6435ZM27.7885 12.08L24.3025 6.06H26.3465L28.6985 10.288L31.0365 6.06H33.0805L29.6085 12.08V16H27.7885V12.08ZM35.829 6.06H37.957L42.241 13.536V6.06H44.061V16H41.877L37.649 8.734V16H35.829V6.06ZM49.3929 16.224C48.4129 16.224 47.5683 16.0187 46.8589 15.608C46.1496 15.188 45.6036 14.5907 45.2209 13.816C44.8383 13.032 44.6469 12.108 44.6469 11.044C44.6469 9.98 44.8383 9.056 45.2209 8.272C45.6036 7.488 46.1496 6.886 46.8589 6.466C47.5683 6.046 48.4129 5.836 49.3929 5.836C50.3729 5.836 51.2176 6.046 51.9269 6.466C52.6456 6.886 53.1916 7.488 53.5649 8.272C53.9476 9.056 54.1389 9.98 54.1389 11.044C54.1389 12.108 53.9476 13.032 53.5649 13.816C53.1916 14.5907 52.6456 15.188 51.9269 15.608C51.2176 16.0187 50.3729 16.224 49.3929 16.224ZM49.3929 14.642C49.9903 14.642 50.5036 14.502 50.9329 14.222C51.3623 13.9327 51.6889 13.5173 51.9129 12.976C52.1369 12.4347 52.2489 11.7907 52.2489 11.044C52.2489 10.288 52.1369 9.63933 51.9129 9.098C51.6889 8.55667 51.3623 8.14133 50.9329 7.852C50.5036 7.56267 49.9903 7.418 49.3929 7.418C48.7956 7.418 48.2823 7.56267 47.8529 7.852C47.4329 8.14133 47.1063 8.55667 46.8729 9.098C46.6489 9.63933 46.5369 10.288 46.5369 11.044C46.5369 11.7907 46.6489 12.4347 46.8729 12.976C47.1063 13.5173 47.4329 13.9327 47.8529 14.222C48.2823 14.502 48.7956 14.642 49.3929 14.642ZM53.4704 6.06H55.4024L57.2224 13.48L59.0424 6.06H60.7364L62.5844 13.48L64.3904 6.06H66.3084L63.6624 16H61.6324L59.8964 9.196L58.1604 16H56.1444L53.4704 6.06ZM81.9372 11.03L77.5972 6.69H79.5432L83.8832 11.044L79.5292 15.398H77.5832L81.9372 11.03ZM68.8192 10.19H82.8892V11.898H68.8192V10.19Z" fill="black"/>
</svg>
